<?xml version="1.0" encoding="UTF-8"?>
<svg id="b" data-name="Layer 2" xmlns="http://www.w3.org/2000/svg" width="50.792" height="45.232" viewBox="0 0 50.792 45.232">
  <g id="c" data-name="Layer 1">
    <path d="M50.792,45.202c-1.643,0-3.15.055-4.647-.042-.331-.021-.732-.526-.923-.899-1.999-3.902-3.979-7.814-5.918-11.745-.331-.671-.718-.904-1.46-.902-8.31.025-16.619.028-24.929-.004-.776-.003-1.117.305-1.432.94-1.926,3.894-3.905,7.763-5.819,11.663-.366.747-.796,1.063-1.643,1.014-1.262-.073-2.532-.019-4.02-.019.459-.961.811-1.739,1.197-2.5C8.03,29.236,14.905,15.785,21.654,2.272,22.512.555,23.455.002,25.337,0c1.895-.002,2.926.476,3.813,2.252,6.995,14.014,14.112,27.968,21.189,41.942.138.272.251.556.453,1.008ZM25.384,4.949c-3.858,7.674-7.585,15.089-11.341,22.559h22.707c-3.791-7.524-7.513-14.911-11.367-22.559Z"/>
  </g>
</svg>