<?xml version="1.0" encoding="UTF-8"?>
<svg id="b" data-name="Layer 2" xmlns="http://www.w3.org/2000/svg" width="50.793" height="46.887" viewBox="0 0 50.793 46.887">
  <g id="c" data-name="Layer 1">
    <path d="M50.793,29.984c-.936,4.578-3.055,8.181-6.44,11.023-4.284,3.596-9.333,5.275-14.835,5.723-6.111.497-12.068-.104-17.597-2.966C4.247,39.789.412,33.348.034,24.789c-.163-3.703.235-7.329,1.683-10.789C3.888,8.817,7.576,5.026,12.695,2.845c8.658-3.689,17.494-3.814,26.21-.236,5.882,2.415,9.943,6.688,11.617,12.977.072.269.131.542.173.817.017.11-.028.23-.064.479-1.381,0-2.77.031-4.154-.028-.252-.011-.622-.344-.713-.606-2.492-7.203-8.024-10.45-15.145-11.472-5.177-.743-10.289-.368-15.141,1.802-7.592,3.395-10.98,10.257-10.53,18.218.606,10.739,8.503,16.532,17.665,17.532,4.838.528,9.573.192,14.077-1.831,4.292-1.928,7.295-5.092,8.889-9.522.283-.786.645-1.052,1.452-1.007,1.187.065,2.38.017,3.765.017Z"/>
  </g>
</svg>