<?xml version="1.0" encoding="UTF-8"?>
<svg id="b" data-name="Layer 2" xmlns="http://www.w3.org/2000/svg" width="50.474" height="45.14" viewBox="0 0 50.474 45.14">
  <g id="c" data-name="Layer 1">
    <path d="M50.474,45.05c-.557.037-.903.08-1.249.081-4.277.005-8.554.033-12.83-.032-.584-.009-1.322-.336-1.718-.766-5.309-5.748-10.569-11.541-15.843-17.321-.294-.322-.597-.635-1.004-1.066-1.916,1.719-3.821,3.394-5.67,5.128-.223.209-.191.741-.192,1.124-.013,3.834-.008,7.667-.008,11.501v1.365H0V.07h11.906v19.484c.48-.354.757-.531,1.003-.744C19.919,12.752,26.92,6.683,33.948.647c.407-.349,1.039-.609,1.569-.615,4.276-.049,8.553-.028,12.83-.028.259,0,.519,0,.778,0,.032.084.063.167.095.251-7.339,6.312-14.678,12.625-22.123,19.028,7.769,8.563,15.505,17.089,23.378,25.766Z"/>
  </g>
</svg>