<?xml version="1.0" encoding="UTF-8"?>
<svg id="b" data-name="Layer 2" xmlns="http://www.w3.org/2000/svg" width="51.057" height="45.179" viewBox="0 0 51.057 45.179">
  <defs>
    <style>
      .d {
        fill: #fff;
      }
    </style>
  </defs>
  <g id="c" data-name="Layer 1">
    <path class="d" d="M0,45.084V.077C.453.056.843.023,1.232.023c8.27-.003,16.54-.061,24.809.02,4.863.048,9.619.802,14.035,3.022,6.416,3.225,9.837,8.534,10.719,15.548.528,4.201.304,8.374-1.09,12.407-2.497,7.221-7.839,11.288-15.05,12.989-2.889.682-5.912,1.037-8.882,1.089-8.227.144-16.459.051-24.688.047-.352,0-.703-.039-1.084-.062ZM11.977,35.962c3.449,0,6.76.033,10.07-.012,1.992-.027,3.999-.046,5.969-.299,5.364-.688,9.163-3.828,10.177-8.717.477-2.299.562-4.769.316-7.107-.514-4.881-3.202-8.243-7.974-9.719-1.322-.409-2.726-.721-4.101-.757-4.627-.123-9.259-.103-13.888-.13-.183-.001-.366.073-.569.116v26.626Z"/>
  </g>
</svg>