<?xml version="1.0" encoding="UTF-8"?>
<svg id="b" data-name="Layer 2" xmlns="http://www.w3.org/2000/svg" width="49.712" height="45.157" viewBox="0 0 49.712 45.157">
  <defs>
    <style>
      .d {
        fill: #fff;
      }
    </style>
  </defs>
  <g id="c" data-name="Layer 1">
    <path class="d" d="M11.627,16.105v28.979H0V.017c.357,0,.738,0,1.119,0,2.717,0,5.434.025,8.15-.016.776-.012,1.331.201,1.876.772,6.781,7.101,13.585,14.179,20.384,21.263,2.099,2.187,4.199,4.373,6.495,6.765V.108h11.687v45.038c-.581,0-1.198,0-1.816,0-2.517,0-5.035.041-7.55-.032-.555-.016-1.246-.296-1.626-.692-8.781-9.164-17.528-18.362-26.282-27.551-.181-.19-.382-.362-.81-.765Z"/>
  </g>
</svg>