<?xml version="1.0" encoding="UTF-8"?>
<svg id="b" data-name="Layer 2" xmlns="http://www.w3.org/2000/svg" width="43.401" height="45.139" viewBox="0 0 43.401 45.139">
  <defs>
    <style>
      .d {
        fill: #fff;
      }
    </style>
  </defs>
  <g id="c" data-name="Layer 1">
    <path class="d" d="M31.601,26.438c3.9,6.175,7.786,12.33,11.8,18.686-1.942,0-3.65.051-5.35-.043-.34-.019-.724-.548-.959-.923-3.408-5.443-6.781-10.909-10.211-16.338-.263-.417-.892-.852-1.354-.856-6.672-.053-13.345-.035-20.018-.03-.157,0-.315.035-.652.076v18.05H0V.007h1.332C9.763.007,18.194-.014,26.625.016c4.072.015,7.985.712,11.192,3.473,3.986,3.431,4.878,7.936,3.975,12.843-.897,4.878-4.006,7.928-8.655,9.482-.452.151-.91.282-1.364.427-.032.01-.052.057-.173.198ZM4.865,22.772c.37.033.604.072.838.072,6.993.004,13.986.02,20.978-.013,1.15-.006,2.319-.14,3.444-.381,3.957-.847,6.557-3.729,6.924-7.561.442-4.63-1.266-8.138-5.043-9.613-1.74-.679-3.709-1.031-5.583-1.065-6.751-.123-13.505-.05-20.258-.046-.422,0-.843.043-1.299.068v18.538Z"/>
  </g>
</svg>