<?xml version="1.0" encoding="UTF-8"?>
<svg id="b" data-name="Layer 2" xmlns="http://www.w3.org/2000/svg" width="50.338" height="45.2" viewBox="0 0 50.338 45.2">
  <defs>
    <style>
      .d {
        fill: #fff;
      }
    </style>
  </defs>
  <g id="c" data-name="Layer 1">
    <path class="d" d="M0,.031C1.679.031,3.224-.022,4.761.073c.329.021.733.527.92.901,3.3,6.596,6.57,13.208,9.85,19.814,3.033,6.107,6.07,12.211,9.108,18.315.171.345.364.679.611,1.138,1.58-3.168,3.097-6.195,4.6-9.229,4.94-9.967,9.886-19.931,14.789-29.916.422-.859.914-1.149,1.835-1.089,1.232.08,2.473.02,3.864.02-.124.37-.185.662-.314.919-7.256,14.47-14.513,28.94-21.808,43.39-.193.383-.797.742-1.24.782-1.189.108-2.401.108-3.59,0-.441-.04-1.042-.403-1.236-.786C14.868,29.875,7.624,15.398.377.922c-.12-.24-.21-.494-.377-.892Z"/>
  </g>
</svg>