<?xml version="1.0" encoding="UTF-8"?>
<svg id="b" data-name="Layer_2" xmlns="http://www.w3.org/2000/svg" width="488.565" height="46.887" viewBox="0 0 488.565 46.887">
  <g id="c" data-name="Layer_1">
    <g>
      <path d="M0,46.792V1.784c.453-.021.843-.054,1.232-.054,8.27-.003,16.54-.061,24.809.02,4.863.048,9.619.802,14.035,3.022,6.416,3.225,9.837,8.534,10.719,15.548.528,4.201.304,8.374-1.09,12.407-2.497,7.221-7.839,11.288-15.05,12.989-2.889.682-5.912,1.037-8.882,1.089-8.227.144-16.459.051-24.688.047-.352,0-.703-.039-1.084-.062ZM11.977,37.67c3.449,0,6.76.033,10.07-.012,1.992-.027,3.999-.046,5.969-.299,5.364-.688,9.163-3.828,10.177-8.717.477-2.299.562-4.769.316-7.107-.514-4.881-3.202-8.243-7.974-9.719-1.322-.409-2.726-.721-4.101-.757-4.627-.123-9.259-.103-13.888-.13-.183-.001-.366.073-.569.116v26.626Z"/>
      <path d="M66.122,17.835v28.979h-11.627V1.746c.357,0,.738,0,1.119,0,2.717,0,5.434.025,8.15-.016.776-.012,1.331.201,1.876.772,6.781,7.101,13.585,14.179,20.384,21.263,2.099,2.187,4.199,4.373,6.495,6.765V1.838h11.687v45.038c-.581,0-1.198,0-1.816,0-2.517,0-5.035.041-7.55-.032-.555-.016-1.246-.296-1.626-.692-8.781-9.164-17.528-18.362-26.282-27.551-.181-.19-.382-.362-.81-.765Z"/>
      <path d="M159.597,46.796c-.557.037-.903.08-1.249.081-4.277.005-8.554.033-12.83-.032-.584-.009-1.322-.336-1.718-.766-5.309-5.748-10.569-11.541-15.843-17.321-.294-.322-.597-.635-1.004-1.066-1.916,1.719-3.821,3.394-5.67,5.128-.223.209-.191.741-.192,1.124-.013,3.834-.008,7.667-.008,11.501v1.365h-11.961V1.817h11.906v19.484c.48-.354.757-.531,1.003-.744,7.01-6.058,14.01-12.127,21.039-18.163.407-.349,1.039-.609,1.569-.615,4.276-.049,8.553-.028,12.83-.028.259,0,.519,0,.778,0,.032.084.063.167.095.251-7.339,6.312-14.678,12.625-22.123,19.028,7.769,8.563,15.505,17.089,23.378,25.766Z"/>
      <path d="M248.356,28.186c3.9,6.175,7.786,12.33,11.8,18.686-1.942,0-3.65.051-5.35-.043-.34-.019-.724-.548-.959-.923-3.408-5.443-6.781-10.909-10.211-16.338-.263-.417-.892-.852-1.354-.856-6.672-.053-13.345-.035-20.018-.03-.157,0-.315.035-.652.076v18.05h-4.856V1.755h1.332c8.431,0,16.862-.021,25.293.009,4.072.015,7.985.712,11.192,3.473,3.986,3.431,4.878,7.936,3.975,12.843-.897,4.878-4.006,7.928-8.655,9.482-.452.151-.91.282-1.364.427-.032.01-.052.057-.173.198ZM221.62,24.52c.37.033.604.072.838.072,6.993.004,13.986.02,20.978-.013,1.15-.006,2.319-.14,3.444-.381,3.957-.847,6.557-3.729,6.924-7.561.442-4.63-1.266-8.138-5.043-9.613-1.74-.679-3.709-1.031-5.583-1.065-6.751-.123-13.505-.05-20.258-.046-.422,0-.843.043-1.299.068v18.538Z"/>
      <path d="M267.989,6.039v15.811h31.023v4.09h-31v16.835h33.21v4.112h-38.01V1.926h38.018v4.114h-33.243Z"/>
      <path d="M455.314,25.915v16.866h33.251v4.105h-38.042V1.926h38.03v4.123h-33.213v15.798h31.041v4.068h-31.067Z"/>
      <path d="M213.171,29.984c-.936,4.578-3.055,8.181-6.44,11.023-4.284,3.596-9.333,5.275-14.835,5.723-6.111.497-12.068-.104-17.597-2.966-7.675-3.974-11.51-10.415-11.888-18.974-.163-3.703.235-7.329,1.683-10.789,2.17-5.183,5.859-8.975,10.977-11.156,8.658-3.689,17.494-3.814,26.21-.236,5.882,2.415,9.943,6.688,11.617,12.977.072.269.131.542.173.817.017.11-.028.23-.064.479-1.381,0-2.77.031-4.154-.028-.252-.011-.622-.344-.713-.606-2.492-7.203-8.024-10.45-15.145-11.472-5.177-.743-10.289-.368-15.141,1.802-7.592,3.395-10.98,10.257-10.53,18.218.606,10.739,8.503,16.532,17.665,17.532,4.838.528,9.573.192,14.077-1.831,4.292-1.928,7.295-5.092,8.889-9.522.283-.786.645-1.052,1.452-1.007,1.187.065,2.38.017,3.765.017Z"/>
      <path d="M354.573,46.857c-1.643,0-3.15.055-4.647-.042-.331-.021-.732-.526-.923-.899-1.999-3.902-3.979-7.814-5.918-11.745-.331-.671-.718-.904-1.46-.902-8.31.025-16.619.028-24.929-.004-.776-.003-1.117.305-1.432.94-1.926,3.894-3.905,7.763-5.819,11.663-.366.747-.796,1.063-1.643,1.014-1.262-.073-2.532-.019-4.02-.019.459-.961.811-1.739,1.197-2.5,6.833-13.472,13.708-26.923,20.457-40.436.858-1.717,1.8-2.27,3.683-2.272,1.895-.002,2.926.476,3.813,2.252,6.995,14.014,14.112,27.968,21.189,41.942.138.272.251.556.453,1.008ZM329.165,6.603c-3.858,7.674-7.585,15.089-11.341,22.559h22.707c-3.791-7.524-7.513-14.911-11.367-22.559Z"/>
      <path d="M397.756,1.718c1.679,0,3.224-.053,4.761.042.329.021.733.527.92.901,3.3,6.596,6.57,13.208,9.85,19.814,3.033,6.107,6.07,12.211,9.108,18.315.171.345.364.679.611,1.138,1.58-3.168,3.097-6.195,4.6-9.229,4.94-9.967,9.886-19.931,14.789-29.916.422-.859.914-1.149,1.835-1.089,1.232.08,2.473.02,3.864.02-.124.37-.185.662-.314.919-7.256,14.47-14.513,28.94-21.808,43.39-.193.383-.797.742-1.24.782-1.189.108-2.401.108-3.59,0-.441-.04-1.042-.403-1.236-.786-7.283-14.457-14.527-28.934-21.773-43.41-.12-.24-.21-.494-.377-.892Z"/>
      <path d="M367.892,46.887h-4.863V6.157h-20.022V1.88h44.818v4.168h-19.933v40.839Z"/>
      <path d="M395.361,46.887h-4.728V1.903h4.728v44.983Z"/>
    </g>
  </g>
</svg>