<?xml version="1.0" encoding="UTF-8"?>
<svg id="b" data-name="Layer_2" xmlns="http://www.w3.org/2000/svg" width="84.685" height="84.681" viewBox="0 0 84.685 84.681">
  <defs>
    <style>
      .d {
        fill: #fff;
      }
    </style>
  </defs>
  <g id="c" data-name="Layer_1">
    <g>
      <path class="d" d="M.009,42.344c0-6.861-.025-13.722.006-20.583C.054,13.449,3.629,7.094,10.754,2.807,13.987.863,17.561.014,21.325.012c13.998-.008,27.996-.025,41.994.004,9.403.02,17.34,5.778,20.334,14.702.723,2.155,1.026,4.393,1.026,6.668,0,13.97.02,27.941-.007,41.911-.018,9.431-5.85,17.452-14.762,20.373-2.161.708-4.396,1.009-6.671,1.009-13.915-.001-27.83.011-41.746-.004-9.474-.01-17.381-5.685-20.443-14.668C.29,67.774.005,65.452.007,63.093c.007-6.916.002-13.833.002-20.749ZM42.346,77.568v.035c6.888,0,13.777.047,20.664-.034,1.682-.02,3.44-.22,5.024-.753,5.976-2.011,9.555-7.235,9.56-13.706.012-13.832.01-27.663-.009-41.495-.002-1.122-.064-2.271-.306-3.361-1.491-6.712-7.016-11.143-13.983-11.16-13.969-.033-27.939-.007-41.908-.013-2.096,0-4.132.329-6.009,1.259-5.479,2.714-8.278,7.151-8.286,13.279-.017,13.777-.009,27.553.003,41.33,0,.96.069,1.927.194,2.879.822,6.218,6.711,11.627,12.986,11.717,7.355.105,14.713.025,22.069.025Z"/>
      <path class="d" d="M63.509,42.218c.124,11.614-9.375,21.207-21.083,21.291-11.604.084-21.121-9.343-21.247-21.043-.125-11.619,9.366-21.203,21.082-21.289,11.606-.085,21.123,9.34,21.248,21.041ZM42.345,56.431c7.791,0,14.068-6.269,14.087-14.068.019-7.782-6.243-14.071-14.047-14.108-7.806-.037-14.149,6.298-14.128,14.109.021,7.8,6.298,14.067,14.089,14.067Z"/>
      <path class="d" d="M65.283,24.68c-2.946.003-5.296-2.359-5.275-5.303.02-2.897,2.376-5.25,5.262-5.257,2.894-.007,5.346,2.457,5.303,5.326-.044,2.905-2.394,5.23-5.29,5.233Z"/>
    </g>
  </g>
</svg>