<?xml version="1.0" encoding="UTF-8"?>
<svg id="b" data-name="Layer_2" xmlns="http://www.w3.org/2000/svg" width="67.876" height="60.781" viewBox="0 0 67.876 60.781">
  <defs>
    <style>
      .d {
        fill: #fff;
      }
    </style>
  </defs>
  <g id="c" data-name="Layer_1">
    <g>
      <path class="d" d="M33.901,35.738c-9.2,0-18.4.017-27.599-.01-3.276-.01-5.121-1.146-5.959-3.501-1.284-3.607,1.179-7.141,5.126-7.177,6.796-.062,13.592-.018,20.389-.019,11.935,0,23.87.015,35.805-.013,2.207-.005,4.115.495,5.353,2.476,2.24,3.584-.131,8.004-4.522,8.19-3.889.165-7.789.051-11.685.054-5.636.004-11.272,0-16.908,0Z"/>
      <path class="d" d="M33.943,49.948c9.284,0,18.569-.023,27.853.012,3.872.014,6.409,2.578,6.044,5.963-.301,2.791-2.503,4.708-5.717,4.774-4.392.09-8.786.077-13.179.08-13.346.008-26.693.005-40.039,0-1.243,0-2.493.024-3.727-.093C1.941,60.375-.112,58.129.016,55.131c.127-2.985,2.347-5.134,5.577-5.164,6.631-.061,13.263-.02,19.895-.021,2.818,0,5.637,0,8.455,0Z"/>
      <path class="d" d="M33.612,10.754c-9.035,0-18.071.083-27.102-.076-1.686-.03-3.88-.571-4.886-1.714C.565,7.76.215,5.517.349,3.79.508,1.757,2.255.563,4.28.165,5.244-.024,6.26.007,7.252.006,25.073-.002,42.893,0,60.713.002c.663,0,1.329-.014,1.988.043,3.071.265,5.142,2.423,5.141,5.326,0,2.881-2.108,5.198-5.14,5.326-3.392.143-6.795.055-10.193.057-6.299.004-12.599.001-18.898,0Z"/>
    </g>
  </g>
</svg>