<?xml version="1.0" encoding="UTF-8"?>
<svg id="b" data-name="Layer 2" xmlns="http://www.w3.org/2000/svg" width="51.098" height="51.278" viewBox="0 0 51.098 51.278">
  <defs>
    <style>
      .d {
        fill: #fff;
      }
    </style>
  </defs>
  <g id="c" data-name="b">
    <path class="d" d="M48.199,40.839c-5.042-5.043-10.086-10.084-15.128-15.126,2.744-2.742,5.488-5.484,8.229-8.229,2.753-2.757,5.591-5.434,8.224-8.301,2.973-3.236,1.525-8.038-2.594-8.989-2.276-.525-3.979.47-5.536,2.034-5.289,5.314-10.596,10.61-15.899,15.91-5.034-5.033-10.066-10.068-15.102-15.1-.702-.701-1.399-1.441-2.214-1.989C6.466-.1,4.386-.491,2.836.834,1.521,1.96.182,3.794.079,5.394c-.097,1.52,1.072,3.454,2.243,4.667,5.116,5.299,10.348,10.488,15.569,15.687-.602.602-1.204,1.205-1.806,1.807-4.805,4.807-9.642,9.581-14.404,14.431-2.766,2.816-2.008,7.057,1.45,8.7,2.258,1.073,4.366.571,6.689-1.738,5.228-5.198,10.435-10.419,15.646-15.635,3.109,3.11,6.217,6.221,9.328,9.328,2.404,2.401,4.748,4.87,7.248,7.167,2.234,2.053,5.363,1.906,7.401-.132,2.053-2.052,2.115-5.042.131-7.401-.426-.506-.907-.967-1.375-1.436Z"/>
  </g>
</svg>